<svg width="144" height="706" viewBox="0 0 144 706" fill="none" xmlns="http://www.w3.org/2000/svg">
<path d="M121.745 207.406L160.453 168.697V337.095L121.745 375.804V472.74L160.453 511.449V661.982L121.745 623.273V538.413L72.9455 489.613V351.156L121.745 302.357V207.406Z" stroke="#5390F0" stroke-width="3"/>
<path opacity="0.2" d="M131.745 213.406L170.453 174.697V343.095L131.745 381.804V468.791L170.453 507.5V658.033L131.745 619.324V534.463L82.9455 485.664V357.156L131.745 308.357V213.406Z" stroke="#50CAF9" stroke-width="3"/>
<path opacity="0.6" d="M120.935 538.842L111.94 547.836V607.15" stroke="#50CAF9" stroke-width="3"/>
<path opacity="0.3" d="M73.0197 489.471L60.7697 477.221V402.36" stroke="#50CAF9" stroke-width="3"/>
<path d="M71.7291 117.658V102.076L98.3347 75.47L124.94 102.076V117.658L98.3347 144.264L71.7291 117.658Z" stroke="#5390F0" stroke-width="3"/>
<path opacity="0.3" d="M78.3848 115.709V104.025L98.3347 84.075L118.285 104.025V115.709L98.3347 135.659L78.3848 115.709Z" stroke="#50CAF9" stroke-width="3"/>
</svg>
