<svg width="144" height="879" viewBox="0 0 144 879" fill="none" xmlns="http://www.w3.org/2000/svg">
<path d="M121.745 217.406L160.453 178.697V347.095L121.745 385.804V482.74L160.453 521.449V671.982L121.745 633.273V548.413L72.9455 499.613V361.156L121.745 312.357V217.406Z" stroke="#5390F0" stroke-width="3"/>
<path opacity="0.2" d="M131.745 223.406L170.453 184.697V353.095L131.745 391.804V478.791L170.453 517.5V668.033L131.745 629.324V544.463L82.9455 495.664V367.156L131.745 318.357V223.406Z" stroke="#50CAF9" stroke-width="3"/>
<path opacity="0.6" d="M120.935 548.842L111.94 557.836V617.15" stroke="#50CAF9" stroke-width="3"/>
<path opacity="0.3" d="M73.0197 499.471L60.7697 487.221V412.36" stroke="#50CAF9" stroke-width="3"/>
<path d="M58.7291 116.658V101.076L85.3347 74.47L111.94 101.076V116.658L85.3347 143.264L58.7291 116.658Z" stroke="#5390F0" stroke-width="3"/>
<path opacity="0.3" d="M65.3848 114.709V103.025L85.3347 83.075L105.285 103.025V114.709L85.3347 134.659L65.3848 114.709Z" stroke="#50CAF9" stroke-width="3"/>
</svg>
