<?xml version="1.0" encoding="UTF-8"?>
<svg width="75px" height="105px" viewBox="0 0 75 105" version="1.1" xmlns="http://www.w3.org/2000/svg" xmlns:xlink="http://www.w3.org/1999/xlink">
    <!-- Generator: Sketch 52.2 (67145) - http://www.bohemiancoding.com/sketch -->
    <title>CardSurgeIcon</title>
    <desc>Created with Sketch.</desc>
    <defs>
        <rect id="path-1" x="0.2214" y="0.45923" width="75" height="150"></rect>
    </defs>
    <g id="CardSurgeIcon" stroke="none" stroke-width="1" fill="none" fill-rule="evenodd">
        <g transform="translate(0.000000, -29.000000)">
            <mask id="mask-2" fill="white">
                <use xlink:href="#path-1"></use>
            </mask>
            <g id="Rectangle"></g>
            <g id="Group" mask="url(#mask-2)" stroke="#F4BF62" stroke-width="3">
                <g transform="translate(-20.000000, 30.000000)" id="Path">
                    <path d="M20.8366541,1.24855189 C21.7874377,0.690649368 22.958666,0.690649368 23.9094495,1.24855189 L42.4100462,12.1037844 C43.3607419,12.6616869 43.9464,13.692553 43.9464,14.8081796 L43.9464,36.5188231 C43.9464,37.6344497 43.3607419,38.665405 42.4100462,39.2232183 L23.9094495,50.07854 C22.958666,50.6363533 21.7874377,50.6363533 20.8366541,50.07854 L2.33608379,39.2232183 C1.38538806,38.665405 0.79973,37.6344497 0.79973,36.5188231 L0.79973,14.8081796 C0.79973,13.692553 1.38538806,12.6616869 2.33608379,12.1037844 L20.8366541,1.24855189 Z" opacity="0.5"></path>
                    <path d="M20.8997465,54.571713 C21.8504421,54.0363623 23.0217579,54.0363623 23.9724535,54.571713 L42.4730465,64.9899016 C43.4237421,65.5252523 44.0094,66.5146921 44.0094,67.5853935 L44.0094,88.4215137 C44.0094,89.4927289 43.4237421,90.4817405 42.4730465,91.01692 L23.9724535,101.435365 C23.0217579,101.970545 21.8504421,101.970545 20.8997465,101.435365 L2.39915348,91.01692 C1.44844917,90.4817405 0.8628,89.4927289 0.8628,88.4215137 L0.8628,67.5853935 C0.8628,66.5146921 1.44844917,65.5252523 2.39915348,64.9899016 L20.8997465,54.571713 Z" opacity="0.5"></path>
                    <path d="M49.8922085,17.4567186 C52.3981591,16.0099774 55.4856456,16.0099774 57.9915962,17.4567186 L80.5566807,30.4847265 C83.0626312,31.9314677 84.6063745,34.6053138 84.6063745,37.4989868 L84.6063745,63.5548121 C84.6063745,66.448485 83.0626312,69.1222358 80.5566807,70.5686912 L57.9915962,83.5972708 C55.4856456,85.0437262 52.3981591,85.0437262 49.8922085,83.5972708 L27.3272193,70.5686912 C24.8212688,69.1222358 23.2775255,66.448485 23.2775255,63.5548121 L23.2775255,37.4989868 C23.2775255,34.6053138 24.8212688,31.9314677 27.3272193,30.4847265 L49.8922085,17.4567186 Z"></path>
                    <path d="M52.2396969,22.4563276 C53.2715589,21.8604986 54.5428769,21.8604986 55.5747389,22.4563276 L77.6169841,35.1823713 C78.6488461,35.7781051 79.2845051,36.8790501 79.2845051,38.070613 L79.2845051,63.5227004 C79.2845051,64.7141679 78.6488461,65.8151129 77.6169841,66.410942 L55.5747389,79.1368904 C54.5428769,79.7324336 53.2715589,79.7324336 52.2396969,79.1368904 L30.197547,66.410942 C29.165685,65.8151129 28.530026,64.7141679 28.530026,63.5227004 L28.530026,38.070613 C28.530026,36.8790501 29.165685,35.7781051 30.197547,35.1823713 L52.2396969,22.4563276 Z" opacity="0.3"></path>
                </g>
            </g>
        </g>
    </g>
</svg>