<svg width="146" height="549" viewBox="0 0 146 549" fill="none" xmlns="http://www.w3.org/2000/svg">
<path opacity="0.75" d="M71.5419 86.3848V76.1955L88.9393 58.7981L106.337 76.1955V86.3848L88.9393 103.782L71.5419 86.3848Z" stroke="white" stroke-width="3"/>
<path opacity="0.3" d="M77.324 84.6916V77.8888L88.9393 66.2736L100.555 77.8888V84.6916L88.9393 96.3068L77.324 84.6916Z" stroke="white" stroke-width="3"/>
<path opacity="0.5" d="M98.5402 475.88V471.313L106.337 463.517L114.133 471.313V475.88L106.337 483.676L98.5402 475.88Z" stroke="white" stroke-width="3"/>
<path opacity="0.25" d="M102.769 474.641V472.552L106.337 468.984L109.904 472.552V474.641L106.337 478.209L102.769 474.641Z" stroke="white" stroke-width="3"/>
<circle opacity="0.4" cx="84.2515" cy="198.678" r="4.68792" fill="#C4C4C4"/>
<circle opacity="0.2" cx="111.025" cy="384.023" r="3.10869" fill="#C4C4C4"/>
<circle opacity="0.2" cx="100.642" cy="519.764" r="3.10869" fill="#C4C4C4"/>
<circle opacity="0.6" cx="134.481" cy="235.978" r="3.10869" fill="#C4C4C4"/>
<circle opacity="0.6" cx="117.242" cy="48.1519" r="3.10869" fill="#C4C4C4"/>
<path d="M159.501 412.585L117.067 370.151V268.613L159.501 226.179" stroke="white" stroke-opacity="0.6" stroke-width="3"/>
<path d="M167.217 408.941L124.783 366.507V272.621L167.217 230.187" stroke="white" stroke-opacity="0.3" stroke-width="3"/>
</svg>
