<svg width="145" height="924" viewBox="0 0 145 924" fill="none" xmlns="http://www.w3.org/2000/svg">
<path d="M25.4439 102.306L-13.2646 63.5979V231.996L25.4439 270.705V367.641L-13.2646 406.35V556.883L25.4439 518.174V433.313L74.243 384.514V246.057L25.4439 197.258V102.306Z" stroke="white" stroke-opacity="0.5" stroke-width="3"/>
<path opacity="0.2" d="M15.4439 108.306L-23.2646 69.5979V237.996L15.4439 276.705V363.692L-23.2646 402.4V552.933L15.4439 514.225V429.364L64.243 380.565V252.057L15.4439 203.258V108.306Z" stroke="white" stroke-width="3"/>
<path opacity="0.6" d="M26.2539 433.743L35.2482 442.737V502.051" stroke="white" stroke-width="3"/>
<path opacity="0.3" d="M74.1689 384.372L86.4188 372.122V297.261" stroke="white" stroke-width="3"/>
<circle opacity="0.7" r="7" transform="matrix(1 0 0 -1 73.5234 269.069)" fill="#99B7E6"/>
<circle r="4.84195" transform="matrix(1 0 0 -1 52.8046 323.3)" fill="#99B7E6"/>
<circle opacity="0.3" r="4.03496" transform="matrix(1 0 0 -1 56.8395 182.034)" fill="#99B7E6"/>
<circle opacity="0.3" r="4.03496" transform="matrix(1 0 0 -1 24.5242 548.027)" fill="#99B7E6"/>
</svg>
