<svg width="145" height="924" viewBox="0 0 145 924" fill="none" xmlns="http://www.w3.org/2000/svg">
<path d="M25.4439 222.306L-13.2646 183.598V351.996L25.4439 390.705V487.641L-13.2646 526.35V676.883L25.4439 638.174V553.313L74.243 504.514V366.057L25.4439 317.258V222.306Z" stroke="white" stroke-opacity="0.5" stroke-width="3"/>
<path opacity="0.2" d="M15.4439 228.306L-23.2646 189.598V357.996L15.4439 396.705V483.692L-23.2646 522.4V672.933L15.4439 634.225V549.364L64.243 500.565V372.057L15.4439 323.258V228.306Z" stroke="white" stroke-width="3"/>
<path opacity="0.6" d="M26.2539 553.743L35.2482 562.737V622.051" stroke="white" stroke-width="3"/>
<path opacity="0.3" d="M74.1689 504.372L86.4188 492.122V417.261" stroke="white" stroke-width="3"/>
<circle opacity="0.7" r="7" transform="matrix(1 0 0 -1 73.5234 389.069)" fill="#99B7E6"/>
<circle r="4.84195" transform="matrix(1 0 0 -1 52.8046 443.3)" fill="#99B7E6"/>
<circle opacity="0.3" r="4.03496" transform="matrix(1 0 0 -1 56.8395 302.034)" fill="#99B7E6"/>
<circle opacity="0.3" r="4.03496" transform="matrix(1 0 0 -1 24.5242 668.027)" fill="#99B7E6"/>
</svg>
