<svg width="75" height="105" viewBox="0 0 75 105" fill="none" xmlns="http://www.w3.org/2000/svg">
<g clip-path="url(#clip0)">
<rect width="75" height="105" fill="white"/>
<path d="M-0.99999 52.6827C-0.999991 41.26 8.25998 32 19.6827 32C31.1055 32 40.3655 41.26 40.3655 52.6827C40.3655 64.1055 31.1055 73.3655 19.6827 73.3655C8.25999 73.3655 -0.999989 64.1055 -0.99999 52.6827Z" fill="#FFF7EA"/>
<path fill-rule="evenodd" clip-rule="evenodd" d="M19.6827 17.8464C0.44314 17.8464 -15.1536 33.4431 -15.1536 52.6827C-15.1536 71.9223 0.443146 87.5191 19.6827 87.5191C38.9223 87.5191 54.5191 71.9223 54.5191 52.6827C54.5191 33.4431 38.9223 17.8464 19.6827 17.8464ZM19.6827 24.6622C12.4125 24.6622 6.354 37.2074 6.354 52.6827C6.35401 68.1581 12.8669 80.7033 19.6827 80.7033C35.158 80.7033 47.7033 68.158 47.7032 52.6827C47.7032 37.2074 35.158 24.6622 19.6827 24.6622Z" fill="#F4BF62"/>
<circle cx="62.3074" cy="52.5" r="5.70765" fill="#F4E2C1"/>
<circle cx="19.4999" cy="9.69261" r="5.70765" transform="rotate(90 19.4999 9.69261)" fill="#F4E2C1"/>
<circle cx="19.4999" cy="95.3073" r="5.70765" transform="rotate(90 19.4999 95.3073)" fill="#F4E2C1"/>
<circle cx="49.7694" cy="22.2305" r="5.70765" transform="rotate(-45 49.7694 22.2305)" fill="#F4E2C1"/>
<circle cx="49.7693" cy="82.7694" r="5.70765" transform="rotate(45 49.7693 82.7694)" fill="#F4E2C1"/>
<circle cx="58.9783" cy="35.9489" r="5.70765" transform="rotate(-22.7457 58.9783 35.9489)" fill="#F4BF62"/>
<circle cx="2.94884" cy="13.0217" r="5.70765" transform="rotate(67.2543 2.94884 13.0217)" fill="#F4BF62"/>
<circle cx="36.051" cy="91.9783" r="5.70765" transform="rotate(67.2543 36.051 91.9783)" fill="#F4BF62"/>
<circle cx="3.28803" cy="92.1187" r="5.70765" transform="rotate(-67.7457 3.28803 92.1187)" fill="#F4BF62"/>
<circle cx="35.7119" cy="12.8813" r="5.70765" transform="rotate(-67.7457 35.7119 12.8813)" fill="#F4BF62"/>
<circle cx="59.1187" cy="68.7118" r="5.70765" transform="rotate(22.2543 59.1187 68.7118)" fill="#F4BF62"/>
</g>
<defs>
<clipPath id="clip0">
<rect width="75" height="105" fill="white"/>
</clipPath>
</defs>
</svg>
